<mxfile host="65bd71144e">
    <diagram id="IFjx0-mxGD_EZsu0zbSy" name="Sliding Window Counter">
        <mxGraphModel dx="555" dy="656" grid="1" gridSize="10" guides="1" tooltips="1" connect="1" arrows="1" fold="1" page="1" pageScale="1" pageWidth="850" pageHeight="1100" math="0" shadow="0">
            <root>
                <mxCell id="0"/>
                <mxCell id="1" parent="0"/>
                <mxCell id="z8XdcrCwoV6CMaq1ioTt-4" value="Frame 2 (count = 2 = limit)" style="rounded=0;whiteSpace=wrap;html=1;fillColor=#d5e8d4;strokeColor=#82b366;fontColor=#000000;" vertex="1" parent="1">
                    <mxGeometry x="410" y="90" width="160" height="60" as="geometry"/>
                </mxCell>
                <mxCell id="Gj8WCd9VOXFtcxxcFVGs-1" value="" style="endArrow=classic;html=1;dashed=1;strokeWidth=2;fontColor=default;startArrow=none;" edge="1" parent="1" source="z8XdcrCwoV6CMaq1ioTt-15">
                    <mxGeometry width="50" height="50" relative="1" as="geometry">
                        <mxPoint x="80" y="360" as="sourcePoint"/>
                        <mxPoint x="680" y="360" as="targetPoint"/>
                    </mxGeometry>
                </mxCell>
                <mxCell id="LUXr1MoeYZ9vuoej9Fmr-1" value="" style="endArrow=classic;html=1;fontColor=#000000;entryX=0.25;entryY=0;entryDx=0;entryDy=0;strokeWidth=2;" edge="1" parent="1">
                    <mxGeometry width="50" height="50" relative="1" as="geometry">
                        <mxPoint x="81" y="170" as="sourcePoint"/>
                        <mxPoint x="81" y="280.0000000000001" as="targetPoint"/>
                    </mxGeometry>
                </mxCell>
                <mxCell id="LUXr1MoeYZ9vuoej9Fmr-3" value="" style="endArrow=classic;html=1;fontColor=#000000;entryX=0.25;entryY=0;entryDx=0;entryDy=0;strokeWidth=2;" edge="1" parent="1">
                    <mxGeometry width="50" height="50" relative="1" as="geometry">
                        <mxPoint x="121" y="120" as="sourcePoint"/>
                        <mxPoint x="121" y="230" as="targetPoint"/>
                    </mxGeometry>
                </mxCell>
                <mxCell id="z8XdcrCwoV6CMaq1ioTt-1" value="" style="endArrow=cross;html=1;fontColor=#000000;endFill=0;entryX=0.75;entryY=0;entryDx=0;entryDy=0;fillColor=#d80073;strokeColor=#A50040;strokeWidth=2;" edge="1" parent="1">
                    <mxGeometry width="50" height="50" relative="1" as="geometry">
                        <mxPoint x="300" y="70" as="sourcePoint"/>
                        <mxPoint x="300" y="180.0000000000001" as="targetPoint"/>
                    </mxGeometry>
                </mxCell>
                <mxCell id="z8XdcrCwoV6CMaq1ioTt-2" value="Frame 2 (count = 1)" style="rounded=0;whiteSpace=wrap;html=1;fillColor=#d5e8d4;strokeColor=#82b366;fontColor=#000000;" vertex="1" parent="1">
                    <mxGeometry x="360" y="230" width="160" height="60" as="geometry"/>
                </mxCell>
                <mxCell id="z8XdcrCwoV6CMaq1ioTt-8" value="0" style="text;html=1;align=center;verticalAlign=middle;resizable=0;points=[];autosize=1;strokeColor=none;fillColor=none;fontColor=default;" vertex="1" parent="1">
                    <mxGeometry x="60" y="360" width="30" height="30" as="geometry"/>
                </mxCell>
                <mxCell id="z8XdcrCwoV6CMaq1ioTt-9" value="" style="shape=waypoint;sketch=0;size=6;pointerEvents=1;points=[];fillColor=none;resizable=0;rotatable=0;perimeter=centerPerimeter;snapToPoint=1;labelBackgroundColor=none;labelBorderColor=none;fontColor=default;" vertex="1" parent="1">
                    <mxGeometry x="70" y="350" width="20" height="20" as="geometry"/>
                </mxCell>
                <mxCell id="z8XdcrCwoV6CMaq1ioTt-11" value="" style="endArrow=none;html=1;dashed=1;strokeWidth=2;fontColor=default;" edge="1" parent="1" target="z8XdcrCwoV6CMaq1ioTt-10">
                    <mxGeometry width="50" height="50" relative="1" as="geometry">
                        <mxPoint x="80" y="360" as="sourcePoint"/>
                        <mxPoint x="680" y="360" as="targetPoint"/>
                    </mxGeometry>
                </mxCell>
                <mxCell id="z8XdcrCwoV6CMaq1ioTt-10" value="" style="shape=waypoint;sketch=0;size=6;pointerEvents=1;points=[];fillColor=none;resizable=0;rotatable=0;perimeter=centerPerimeter;snapToPoint=1;labelBackgroundColor=none;labelBorderColor=none;fontColor=default;" vertex="1" parent="1">
                    <mxGeometry x="110" y="350" width="20" height="20" as="geometry"/>
                </mxCell>
                <mxCell id="z8XdcrCwoV6CMaq1ioTt-12" value="15" style="text;html=1;align=center;verticalAlign=middle;resizable=0;points=[];autosize=1;strokeColor=none;fillColor=none;fontColor=default;" vertex="1" parent="1">
                    <mxGeometry x="100" y="360" width="40" height="30" as="geometry"/>
                </mxCell>
                <mxCell id="z8XdcrCwoV6CMaq1ioTt-13" value="time (s)" style="text;html=1;align=center;verticalAlign=middle;resizable=0;points=[];autosize=1;strokeColor=none;fillColor=none;fontColor=default;" vertex="1" parent="1">
                    <mxGeometry x="660" y="360" width="60" height="30" as="geometry"/>
                </mxCell>
                <mxCell id="z8XdcrCwoV6CMaq1ioTt-14" value="30" style="text;html=1;align=center;verticalAlign=middle;resizable=0;points=[];autosize=1;strokeColor=none;fillColor=none;fontColor=default;" vertex="1" parent="1">
                    <mxGeometry x="140" y="360" width="40" height="30" as="geometry"/>
                </mxCell>
                <mxCell id="z8XdcrCwoV6CMaq1ioTt-16" value="" style="endArrow=none;html=1;dashed=1;strokeWidth=2;fontColor=default;startArrow=none;" edge="1" parent="1" source="z8XdcrCwoV6CMaq1ioTt-10" target="z8XdcrCwoV6CMaq1ioTt-15">
                    <mxGeometry width="50" height="50" relative="1" as="geometry">
                        <mxPoint x="120" y="360" as="sourcePoint"/>
                        <mxPoint x="680" y="360" as="targetPoint"/>
                    </mxGeometry>
                </mxCell>
                <mxCell id="z8XdcrCwoV6CMaq1ioTt-15" value="" style="shape=waypoint;sketch=0;size=6;pointerEvents=1;points=[];fillColor=none;resizable=0;rotatable=0;perimeter=centerPerimeter;snapToPoint=1;labelBackgroundColor=none;labelBorderColor=none;fontColor=default;" vertex="1" parent="1">
                    <mxGeometry x="150" y="350" width="20" height="20" as="geometry"/>
                </mxCell>
                <mxCell id="z8XdcrCwoV6CMaq1ioTt-17" value="90" style="text;html=1;align=center;verticalAlign=middle;resizable=0;points=[];autosize=1;strokeColor=none;fillColor=none;fontColor=default;" vertex="1" parent="1">
                    <mxGeometry x="300" y="360" width="40" height="30" as="geometry"/>
                </mxCell>
                <mxCell id="z8XdcrCwoV6CMaq1ioTt-18" value="90" style="text;html=1;align=center;verticalAlign=middle;resizable=0;points=[];autosize=1;strokeColor=none;fillColor=none;fontColor=default;" vertex="1" parent="1">
                    <mxGeometry x="450" y="360" width="40" height="30" as="geometry"/>
                </mxCell>
                <mxCell id="WVZx-e-wMy36gHtiziwh-1" value="Frame 1 (count = 2)" style="rounded=0;whiteSpace=wrap;html=1;fillColor=#dae8fc;strokeColor=#6c8ebf;fontColor=#000000;" vertex="1" parent="1">
                    <mxGeometry x="120" y="230" width="160" height="60" as="geometry"/>
                </mxCell>
                <mxCell id="KJ9Z418Lqap7H9HYXbEA-1" value="Frame 1 (count = 1)" style="rounded=0;whiteSpace=wrap;html=1;fillColor=#dae8fc;strokeColor=#6c8ebf;fontColor=#000000;" vertex="1" parent="1">
                    <mxGeometry x="80" y="280" width="160" height="60" as="geometry"/>
                </mxCell>
                <mxCell id="WVZx-e-wMy36gHtiziwh-2" value="" style="endArrow=classic;html=1;fontColor=#000000;entryX=0.25;entryY=0;entryDx=0;entryDy=0;strokeWidth=2;" edge="1" parent="1">
                    <mxGeometry width="50" height="50" relative="1" as="geometry">
                        <mxPoint x="330" y="60" as="sourcePoint"/>
                        <mxPoint x="330" y="170.0000000000001" as="targetPoint"/>
                    </mxGeometry>
                </mxCell>
                <mxCell id="WVZx-e-wMy36gHtiziwh-3" value="Frame 1 (count = 3 = limit)" style="rounded=0;whiteSpace=wrap;html=1;fillColor=#dae8fc;strokeColor=#6c8ebf;fontColor=#000000;" vertex="1" parent="1">
                    <mxGeometry x="160" y="180" width="160" height="60" as="geometry"/>
                </mxCell>
                <mxCell id="WVZx-e-wMy36gHtiziwh-4" value="" style="endArrow=classic;html=1;fontColor=#000000;entryX=0.25;entryY=0;entryDx=0;entryDy=0;strokeWidth=2;" edge="1" parent="1">
                    <mxGeometry width="50" height="50" relative="1" as="geometry">
                        <mxPoint x="161" y="70" as="sourcePoint"/>
                        <mxPoint x="161" y="180.0000000000001" as="targetPoint"/>
                    </mxGeometry>
                </mxCell>
            </root>
        </mxGraphModel>
    </diagram>
    <diagram id="xi3oubU7MQk78jxgaRuo" name="Fixed Window Sliding">
        <mxGraphModel dx="607" dy="543" grid="1" gridSize="10" guides="1" tooltips="1" connect="1" arrows="1" fold="1" page="1" pageScale="1" pageWidth="850" pageHeight="1100" math="0" shadow="0">
            <root>
                <mxCell id="0"/>
                <mxCell id="1" parent="0"/>
                <mxCell id="pdjJqc8EOPVjB-HKFfC1-42" value="" style="rounded=0;whiteSpace=wrap;html=1;labelBackgroundColor=#E6E6E6;fontColor=default;strokeColor=none;" vertex="1" parent="1">
                    <mxGeometry x="60" y="90" width="520" height="270" as="geometry"/>
                </mxCell>
                <mxCell id="pdjJqc8EOPVjB-HKFfC1-1" value="Frame 1" style="rounded=0;whiteSpace=wrap;html=1;fillColor=#dae8fc;strokeColor=#6c8ebf;fontColor=#000000;" vertex="1" parent="1">
                    <mxGeometry x="100" y="240" width="160" height="60" as="geometry"/>
                </mxCell>
                <mxCell id="pdjJqc8EOPVjB-HKFfC1-2" value="Frame 2" style="rounded=0;whiteSpace=wrap;html=1;fillColor=#d5e8d4;strokeColor=#82b366;fontColor=#000000;" vertex="1" parent="1">
                    <mxGeometry x="300" y="240" width="160" height="60" as="geometry"/>
                </mxCell>
                <mxCell id="pdjJqc8EOPVjB-HKFfC1-4" value="" style="endArrow=classic;html=1;fontColor=#000000;strokeWidth=2;entryX=0;entryY=0;entryDx=0;entryDy=0;" edge="1" parent="1" target="pdjJqc8EOPVjB-HKFfC1-1">
                    <mxGeometry width="50" height="50" relative="1" as="geometry">
                        <mxPoint x="100" y="130" as="sourcePoint"/>
                        <mxPoint x="100" y="230" as="targetPoint"/>
                    </mxGeometry>
                </mxCell>
                <mxCell id="pdjJqc8EOPVjB-HKFfC1-5" value="" style="endArrow=classic;html=1;fontColor=#000000;entryX=0.25;entryY=0;entryDx=0;entryDy=0;strokeWidth=2;" edge="1" parent="1">
                    <mxGeometry width="50" height="50" relative="1" as="geometry">
                        <mxPoint x="120" y="130" as="sourcePoint"/>
                        <mxPoint x="120" y="240" as="targetPoint"/>
                    </mxGeometry>
                </mxCell>
                <mxCell id="pdjJqc8EOPVjB-HKFfC1-7" value="" style="endArrow=classic;html=1;fontColor=#000000;entryX=0.25;entryY=0;entryDx=0;entryDy=0;strokeWidth=2;" edge="1" parent="1">
                    <mxGeometry width="50" height="50" relative="1" as="geometry">
                        <mxPoint x="450" y="130" as="sourcePoint"/>
                        <mxPoint x="450" y="240" as="targetPoint"/>
                    </mxGeometry>
                </mxCell>
                <mxCell id="pdjJqc8EOPVjB-HKFfC1-8" value="" style="endArrow=classic;html=1;fontColor=#000000;entryX=0.25;entryY=0;entryDx=0;entryDy=0;strokeWidth=2;" edge="1" parent="1">
                    <mxGeometry width="50" height="50" relative="1" as="geometry">
                        <mxPoint x="300" y="130" as="sourcePoint"/>
                        <mxPoint x="300" y="240" as="targetPoint"/>
                    </mxGeometry>
                </mxCell>
                <mxCell id="pdjJqc8EOPVjB-HKFfC1-11" value="" style="endArrow=cross;html=1;fontColor=#000000;endFill=0;entryX=0.75;entryY=0;entryDx=0;entryDy=0;fillColor=#d80073;strokeColor=#A50040;strokeWidth=2;" edge="1" parent="1">
                    <mxGeometry width="50" height="50" relative="1" as="geometry">
                        <mxPoint x="250" y="130" as="sourcePoint"/>
                        <mxPoint x="250" y="240.0000000000001" as="targetPoint"/>
                    </mxGeometry>
                </mxCell>
                <mxCell id="pdjJqc8EOPVjB-HKFfC1-15" value="" style="endArrow=classic;html=1;strokeWidth=2;fontColor=#000000;dashed=1;startArrow=none;" edge="1" parent="1" source="pdjJqc8EOPVjB-HKFfC1-33">
                    <mxGeometry width="50" height="50" relative="1" as="geometry">
                        <mxPoint x="100" y="320" as="sourcePoint"/>
                        <mxPoint x="540" y="320" as="targetPoint"/>
                    </mxGeometry>
                </mxCell>
                <mxCell id="pdjJqc8EOPVjB-HKFfC1-28" value="" style="endArrow=none;html=1;strokeWidth=2;fontColor=#000000;dashed=1;startArrow=none;" edge="1" parent="1" source="pdjJqc8EOPVjB-HKFfC1-35" target="pdjJqc8EOPVjB-HKFfC1-27">
                    <mxGeometry width="50" height="50" relative="1" as="geometry">
                        <mxPoint x="100" y="320.0000000000001" as="sourcePoint"/>
                        <mxPoint x="540" y="320.0000000000001" as="targetPoint"/>
                    </mxGeometry>
                </mxCell>
                <mxCell id="pdjJqc8EOPVjB-HKFfC1-27" value="" style="shape=waypoint;sketch=0;size=6;pointerEvents=1;points=[];fillColor=none;resizable=0;rotatable=0;perimeter=centerPerimeter;snapToPoint=1;fontColor=#FFFFFF;" vertex="1" parent="1">
                    <mxGeometry x="251" y="310" width="20" height="20" as="geometry"/>
                </mxCell>
                <mxCell id="pdjJqc8EOPVjB-HKFfC1-31" value="" style="endArrow=none;html=1;strokeWidth=2;fontColor=#000000;dashed=1;startArrow=none;" edge="1" parent="1" source="pdjJqc8EOPVjB-HKFfC1-27" target="pdjJqc8EOPVjB-HKFfC1-30">
                    <mxGeometry width="50" height="50" relative="1" as="geometry">
                        <mxPoint x="261" y="320.0000000000001" as="sourcePoint"/>
                        <mxPoint x="540" y="320.0000000000001" as="targetPoint"/>
                    </mxGeometry>
                </mxCell>
                <mxCell id="pdjJqc8EOPVjB-HKFfC1-30" value="" style="shape=waypoint;sketch=0;size=6;pointerEvents=1;points=[];fillColor=none;resizable=0;rotatable=0;perimeter=centerPerimeter;snapToPoint=1;fontColor=#FFFFFF;" vertex="1" parent="1">
                    <mxGeometry x="290" y="310" width="20" height="20" as="geometry"/>
                </mxCell>
                <mxCell id="pdjJqc8EOPVjB-HKFfC1-34" value="" style="endArrow=none;html=1;strokeWidth=2;fontColor=#000000;dashed=1;startArrow=none;" edge="1" parent="1" source="pdjJqc8EOPVjB-HKFfC1-30" target="pdjJqc8EOPVjB-HKFfC1-33">
                    <mxGeometry width="50" height="50" relative="1" as="geometry">
                        <mxPoint x="300" y="320.0000000000001" as="sourcePoint"/>
                        <mxPoint x="540" y="320.0000000000001" as="targetPoint"/>
                    </mxGeometry>
                </mxCell>
                <mxCell id="pdjJqc8EOPVjB-HKFfC1-33" value="" style="shape=waypoint;sketch=0;size=6;pointerEvents=1;points=[];fillColor=none;resizable=0;rotatable=0;perimeter=centerPerimeter;snapToPoint=1;fontColor=#FFFFFF;" vertex="1" parent="1">
                    <mxGeometry x="450" y="310" width="20" height="20" as="geometry"/>
                </mxCell>
                <mxCell id="pdjJqc8EOPVjB-HKFfC1-36" value="" style="endArrow=none;html=1;strokeWidth=2;fontColor=#000000;dashed=1;" edge="1" parent="1" target="pdjJqc8EOPVjB-HKFfC1-35">
                    <mxGeometry width="50" height="50" relative="1" as="geometry">
                        <mxPoint x="100" y="320.0000000000001" as="sourcePoint"/>
                        <mxPoint x="261" y="320.0000000000001" as="targetPoint"/>
                    </mxGeometry>
                </mxCell>
                <mxCell id="pdjJqc8EOPVjB-HKFfC1-35" value="" style="shape=waypoint;sketch=0;size=6;pointerEvents=1;points=[];fillColor=none;resizable=0;rotatable=0;perimeter=centerPerimeter;snapToPoint=1;fontColor=#FFFFFF;" vertex="1" parent="1">
                    <mxGeometry x="90" y="310" width="20" height="20" as="geometry"/>
                </mxCell>
                <mxCell id="pdjJqc8EOPVjB-HKFfC1-38" value="0" style="text;html=1;align=center;verticalAlign=middle;resizable=0;points=[];autosize=1;strokeColor=none;fillColor=none;fontColor=default;labelBackgroundColor=none;" vertex="1" parent="1">
                    <mxGeometry x="85" y="320" width="30" height="30" as="geometry"/>
                </mxCell>
                <mxCell id="pdjJqc8EOPVjB-HKFfC1-39" value="60" style="text;html=1;align=center;verticalAlign=middle;resizable=0;points=[];autosize=1;strokeColor=none;fillColor=none;fontColor=default;labelBackgroundColor=none;" vertex="1" parent="1">
                    <mxGeometry x="239" y="320" width="40" height="30" as="geometry"/>
                </mxCell>
                <mxCell id="pdjJqc8EOPVjB-HKFfC1-40" value="75" style="text;html=1;align=center;verticalAlign=middle;resizable=0;points=[];autosize=1;strokeColor=none;fillColor=none;fontColor=default;labelBackgroundColor=none;" vertex="1" parent="1">
                    <mxGeometry x="280" y="320" width="40" height="30" as="geometry"/>
                </mxCell>
                <mxCell id="pdjJqc8EOPVjB-HKFfC1-41" value="135" style="text;html=1;align=center;verticalAlign=middle;resizable=0;points=[];autosize=1;strokeColor=none;fillColor=none;fontColor=default;labelBackgroundColor=none;" vertex="1" parent="1">
                    <mxGeometry x="440" y="320" width="40" height="30" as="geometry"/>
                </mxCell>
                <mxCell id="W3zzNvZn7IuJiouF1Zos-1" value="time (s)" style="text;html=1;align=center;verticalAlign=middle;resizable=0;points=[];autosize=1;strokeColor=none;fillColor=none;fontColor=default;" vertex="1" parent="1">
                    <mxGeometry x="510" y="320" width="60" height="30" as="geometry"/>
                </mxCell>
                <mxCell id="HnW_0d2a2w2xTl7m5O-y-1" value="R1" style="text;html=1;align=center;verticalAlign=middle;resizable=0;points=[];autosize=1;strokeColor=none;fillColor=none;fontColor=default;" vertex="1" parent="1">
                    <mxGeometry x="75" y="100" width="40" height="30" as="geometry"/>
                </mxCell>
                <mxCell id="HnW_0d2a2w2xTl7m5O-y-2" value="R2" style="text;html=1;align=center;verticalAlign=middle;resizable=0;points=[];autosize=1;strokeColor=none;fillColor=none;fontColor=default;" vertex="1" parent="1">
                    <mxGeometry x="100" y="100" width="40" height="30" as="geometry"/>
                </mxCell>
                <mxCell id="HnW_0d2a2w2xTl7m5O-y-3" value="R3" style="text;html=1;align=center;verticalAlign=middle;resizable=0;points=[];autosize=1;strokeColor=none;fillColor=none;fontColor=#FF0000;" vertex="1" parent="1">
                    <mxGeometry x="230" y="100" width="40" height="30" as="geometry"/>
                </mxCell>
                <mxCell id="HnW_0d2a2w2xTl7m5O-y-4" value="R5" style="text;html=1;align=center;verticalAlign=middle;resizable=0;points=[];autosize=1;strokeColor=none;fillColor=none;fontColor=default;" vertex="1" parent="1">
                    <mxGeometry x="279" y="100" width="40" height="30" as="geometry"/>
                </mxCell>
                <mxCell id="HnW_0d2a2w2xTl7m5O-y-5" value="R6" style="text;html=1;align=center;verticalAlign=middle;resizable=0;points=[];autosize=1;strokeColor=none;fillColor=none;fontColor=default;" vertex="1" parent="1">
                    <mxGeometry x="430" y="100" width="40" height="30" as="geometry"/>
                </mxCell>
            </root>
        </mxGraphModel>
    </diagram>
    <diagram id="UtXpNpT0RbJBCRO2_H2m" name="How it work?">
        <mxGraphModel dx="880" dy="787" grid="1" gridSize="10" guides="1" tooltips="1" connect="1" arrows="1" fold="1" page="1" pageScale="1" pageWidth="850" pageHeight="1100" math="0" shadow="0">
            <root>
                <mxCell id="0"/>
                <mxCell id="1" parent="0"/>
                <mxCell id="dIZt25DJv7dSvNYJRUyT-22" value="" style="rounded=0;whiteSpace=wrap;html=1;labelBackgroundColor=#E6E6E6;fontColor=default;labelBorderColor=none;strokeColor=none;" vertex="1" parent="1">
                    <mxGeometry x="110" y="60" width="530" height="490" as="geometry"/>
                </mxCell>
                <mxCell id="2" value=":Client" style="shape=umlLifeline;perimeter=lifelinePerimeter;whiteSpace=wrap;html=1;container=1;collapsible=0;recursiveResize=0;outlineConnect=0;" parent="1" vertex="1">
                    <mxGeometry x="130" y="80" width="100" height="450" as="geometry"/>
                </mxCell>
                <mxCell id="20" value="(2)" style="text;html=1;strokeColor=none;fillColor=none;align=center;verticalAlign=middle;whiteSpace=wrap;rounded=0;" vertex="1" parent="2">
                    <mxGeometry x="10" y="140" width="30" height="30" as="geometry"/>
                </mxCell>
                <mxCell id="21" value="(3)" style="text;html=1;strokeColor=none;fillColor=none;align=center;verticalAlign=middle;whiteSpace=wrap;rounded=0;" vertex="1" parent="2">
                    <mxGeometry x="10" y="220" width="30" height="30" as="geometry"/>
                </mxCell>
                <mxCell id="22" value="(4)" style="text;html=1;strokeColor=none;fillColor=none;align=center;verticalAlign=middle;whiteSpace=wrap;rounded=0;" vertex="1" parent="2">
                    <mxGeometry x="10" y="380" width="30" height="30" as="geometry"/>
                </mxCell>
                <mxCell id="4" value="request" style="html=1;verticalAlign=bottom;endArrow=block;fontSize=12;" parent="1" edge="1">
                    <mxGeometry width="80" relative="1" as="geometry">
                        <mxPoint x="190" y="180" as="sourcePoint"/>
                        <mxPoint x="410" y="180" as="targetPoint"/>
                    </mxGeometry>
                </mxCell>
                <mxCell id="5" value=":Server" style="shape=umlLifeline;perimeter=lifelinePerimeter;whiteSpace=wrap;html=1;container=1;collapsible=0;recursiveResize=0;outlineConnect=0;" parent="1" vertex="1">
                    <mxGeometry x="370" y="80" width="100" height="450" as="geometry"/>
                </mxCell>
                <mxCell id="14" value="" style="endArrow=classic;html=1;fontSize=12;fontColor=#FF0000;strokeWidth=6;fillColor=#ffcd28;strokeColor=#d79b00;gradientColor=#ffa500;" parent="5" edge="1">
                    <mxGeometry width="50" height="50" relative="1" as="geometry">
                        <mxPoint x="70" y="160" as="sourcePoint"/>
                        <mxPoint x="70" y="390" as="targetPoint"/>
                    </mxGeometry>
                </mxCell>
                <mxCell id="7" value="Rule&lt;br style=&quot;font-size: 24px;&quot;&gt;2 requests in 1 minute" style="text;html=1;strokeColor=none;fillColor=none;align=center;verticalAlign=middle;whiteSpace=wrap;rounded=0;fontSize=24;" parent="1" vertex="1">
                    <mxGeometry x="480" y="160" width="150" height="130" as="geometry"/>
                </mxCell>
                <mxCell id="8" value="success" style="html=1;verticalAlign=bottom;endArrow=open;dashed=1;endSize=8;fontSize=12;" parent="1" edge="1">
                    <mxGeometry relative="1" as="geometry">
                        <mxPoint x="410" y="200" as="sourcePoint"/>
                        <mxPoint x="190" y="200" as="targetPoint"/>
                    </mxGeometry>
                </mxCell>
                <mxCell id="9" value="request" style="html=1;verticalAlign=bottom;endArrow=block;fontSize=12;" parent="1" edge="1">
                    <mxGeometry width="80" relative="1" as="geometry">
                        <mxPoint x="190" y="240" as="sourcePoint"/>
                        <mxPoint x="410" y="240" as="targetPoint"/>
                    </mxGeometry>
                </mxCell>
                <mxCell id="11" value="success" style="html=1;verticalAlign=bottom;endArrow=open;dashed=1;endSize=8;fontSize=12;" parent="1" edge="1">
                    <mxGeometry relative="1" as="geometry">
                        <mxPoint x="410" y="260" as="sourcePoint"/>
                        <mxPoint x="190" y="260" as="targetPoint"/>
                    </mxGeometry>
                </mxCell>
                <mxCell id="12" value="request" style="html=1;verticalAlign=bottom;endArrow=block;fontSize=12;" parent="1" edge="1">
                    <mxGeometry width="80" relative="1" as="geometry">
                        <mxPoint x="190" y="319.58" as="sourcePoint"/>
                        <mxPoint x="410" y="319.58" as="targetPoint"/>
                    </mxGeometry>
                </mxCell>
                <mxCell id="13" value="fail - Too many requests!" style="html=1;verticalAlign=bottom;endArrow=open;dashed=1;endSize=8;fontSize=12;fontColor=#FF0000;" parent="1" edge="1">
                    <mxGeometry relative="1" as="geometry">
                        <mxPoint x="410" y="340" as="sourcePoint"/>
                        <mxPoint x="190" y="340" as="targetPoint"/>
                    </mxGeometry>
                </mxCell>
                <mxCell id="16" value="request" style="html=1;verticalAlign=bottom;endArrow=block;fontSize=12;" parent="1" edge="1">
                    <mxGeometry width="80" relative="1" as="geometry">
                        <mxPoint x="190" y="480" as="sourcePoint"/>
                        <mxPoint x="410" y="480" as="targetPoint"/>
                    </mxGeometry>
                </mxCell>
                <mxCell id="17" value="success" style="html=1;verticalAlign=bottom;endArrow=open;dashed=1;endSize=8;fontSize=12;" parent="1" edge="1">
                    <mxGeometry relative="1" as="geometry">
                        <mxPoint x="410" y="500.0000000000001" as="sourcePoint"/>
                        <mxPoint x="190" y="500.0000000000001" as="targetPoint"/>
                    </mxGeometry>
                </mxCell>
                <mxCell id="18" value="After 1 minute" style="text;html=1;strokeColor=none;fillColor=none;align=center;verticalAlign=middle;whiteSpace=wrap;rounded=0;" vertex="1" parent="1">
                    <mxGeometry x="460" y="450" width="90" height="30" as="geometry"/>
                </mxCell>
                <mxCell id="19" value="(1)" style="text;html=1;strokeColor=none;fillColor=none;align=center;verticalAlign=middle;whiteSpace=wrap;rounded=0;" vertex="1" parent="1">
                    <mxGeometry x="140" y="160" width="30" height="30" as="geometry"/>
                </mxCell>
            </root>
        </mxGraphModel>
    </diagram>
</mxfile>